<svg id="Layer_1" data-name="Layer 1" xmlns="http://www.w3.org/2000/svg" viewBox="0 0 557.96 557.96"><defs><style>.cls-1{fill:#eb637d;stroke:#fff200;stroke-miterlimit:10;stroke-width:15px;}.cls-2{fill:#ffcb2b;}.cls-3{fill:#ffdf82;}.cls-4{fill:#f3a921;}.cls-5{fill:#c0ca34;}.cls-6{fill:#2b2929;}.cls-7{fill:#231f20;}.cls-8{fill:#fff;}.cls-9{opacity:0.9;}.cls-10{font-size:54.26px;fill:#010101;stroke:#fff;stroke-linecap:round;stroke-linejoin:round;font-family:Stop;}</style></defs><circle class="cls-1" cx="278.98" cy="278.98" r="271.48"/><path class="cls-2" d="M513,101c0,5.85-.17,11.71,1.2,17.47a29,29,0,0,0,4.55,10.38c9.76,13.65,15.9,28.92,19.52,45.22,5.77,26,3.88,51.66-3.53,77a121,121,0,0,1-4.44,13.15,14.06,14.06,0,0,0-3.89,5.09c-2.58,4.95-4.55,10.21-7.37,15.05-7.46,12.81-16.92,24.06-27.3,34.55-5.48,5.55-11.29,10.77-17.24,15.84A256.17,256.17,0,0,1,452,352.18a350,350,0,0,1-33.9,20.09,298.71,298.71,0,0,1-37.94,16.84c-18.14,6.53-36.76,11.07-56,12.21a136.27,136.27,0,0,1-26.63-.72,115,115,0,0,1-25.07-6c-4.08-1.55-8.23-3-11.91-5.43,3.15-1.33,4.49-4.14,5.7-7.05,1.31-3.12,1.82-6.46,2.63-9.71a177.31,177.31,0,0,0,26.32-2.26,232.39,232.39,0,0,0,38.64-9,236.84,236.84,0,0,0,92.28-55.54q4.92-4.79,9.58-9.85,7.58-8.19,14.41-17a279.18,279.18,0,0,0,21.55-32.09A244.83,244.83,0,0,0,484.27,222a228,228,0,0,0,13-40c1.78-7.85,3.36-15.73,4.45-23.71.74-5.46,1.52-10.9,1.91-16.41.29-4.27,1-8.41-.35-12.76-2.56-8.44-2.15-17.21-1.93-25.91C505.44,103.55,509.23,102.23,513,101Z" transform="translate(-127.81 -5.91)"/><path class="cls-3" d="M501.33,103.29c-.22,8.7-.63,17.47,1.93,25.91,1.32,4.35.64,8.49.35,12.76-.39,5.51-1.17,10.95-1.91,16.41-1.09,8-2.67,15.86-4.45,23.71a228,228,0,0,1-13,40,244.83,244.83,0,0,1-12.67,24.58,279.18,279.18,0,0,1-21.55,32.09q-6.85,8.81-14.41,17-4.67,5.06-9.58,9.85a236.84,236.84,0,0,1-92.28,55.54,232.39,232.39,0,0,1-38.64,9,177.31,177.31,0,0,1-26.32,2.26c.11-1.13.17-2.27.33-3.4,1.27-8.81-5.74-18.59-15.15-14.95.06-1.05,1-1.19,1.68-1.59a72.85,72.85,0,0,1,15.77-7.18c10.46-3.44,20.68-7.48,30.86-11.64,22.82-9.34,45-20,66-33a262.35,262.35,0,0,0,38.05-28.37,185.79,185.79,0,0,0,43.44-58.46c5.85-12.31,10.53-25.08,15.11-37.9,5.48-15.33,11.09-30.59,18.54-45.14,2.53-5,3.51-10.59,4.43-16.12.78-4.72,1.33-9.56.59-14.24-.6-3.79-.24-7.58-.9-11.31,4.47,1.71,8.83,3.72,13.48,4.94.89.23,1,.77,1,1.53Q501.66,99.44,501.33,103.29Z" transform="translate(-127.81 -5.91)"/><path class="cls-4" d="M260.49,389.16c3.68,2.44,7.83,3.88,11.91,5.43a115,115,0,0,0,25.07,6,136.27,136.27,0,0,0,26.63.72c19.28-1.14,37.9-5.68,56-12.21a298.71,298.71,0,0,0,37.94-16.84A350,350,0,0,0,452,352.18a256.17,256.17,0,0,0,22.55-17.43c6-5.07,11.76-10.29,17.24-15.84,10.38-10.49,19.84-21.74,27.3-34.55,2.82-4.84,4.79-10.1,7.37-15.05a14.06,14.06,0,0,1,3.89-5.09,114.39,114.39,0,0,1-6.44,15.63c-19.45,40.79-49.38,71.82-88.3,94.36-23.95,13.87-49.66,23.23-76.66,29.15-7.1,1.56-14.16,3.33-21.37,4.31a162.31,162.31,0,0,1-31.39,1.5,110.25,110.25,0,0,1-28.38-5.08,70.11,70.11,0,0,1-25.63-14.6c-.47-.43-.86-.92-1.29-1.39A14.52,14.52,0,0,0,260.49,389.16Z" transform="translate(-127.81 -5.91)"/><path class="cls-5" d="M501.33,103.29q.33-3.86.67-7.69c.07-.76-.07-1.3-1-1.53-4.65-1.22-9-3.23-13.48-4.94a2.79,2.79,0,0,0-.79-.49c-3.09-.69-4-2.89-4.52-5.74-1.41-8.5.2-16.18,5.72-22.91a5,5,0,0,1,3.13-1.94c3.75-.65,7.48-1.49,11.19-2.34a3.87,3.87,0,0,1,2.39.34q8.6,3.39,17.19,6.78a1.63,1.63,0,0,1,1.21,1.47,35.92,35.92,0,0,1-1.87,17.64,6.78,6.78,0,0,1-3.7,4.33,3.4,3.4,0,0,0-2,2.57A77,77,0,0,0,513,101C509.23,102.23,505.44,103.55,501.33,103.29Z" transform="translate(-127.81 -5.91)"/><path class="cls-6" d="M260.49,389.16a14.52,14.52,0,0,1-9.62-1.06c-6-4.61-6.89-11.07-6.22-18a21.73,21.73,0,0,1,8.44-15.77c.43.2.76.17.92-.34h0c9.41-3.64,16.42,6.14,15.15,14.95-.16,1.13-.22,2.27-.33,3.4-.81,3.25-1.32,6.59-2.63,9.71C265,385,263.64,387.83,260.49,389.16Z" transform="translate(-127.81 -5.91)"/><path class="cls-3" d="M254,354c-.16.51-.49.54-.92.34C253.33,354.08,253.59,353.84,254,354Z" transform="translate(-127.81 -5.91)"/><path class="cls-7" d="M502.6,285.35A34.86,34.86,0,0,1,442,271.81a43.75,43.75,0,0,0,60.59,13.54Z" transform="translate(-127.81 -5.91)"/><ellipse class="cls-8" cx="346.15" cy="211.91" rx="8.26" ry="11.19"/><ellipse cx="346.15" cy="211.91" rx="5.24" ry="7.1"/><ellipse class="cls-8" cx="384.51" cy="211.91" rx="8.26" ry="11.19"/><ellipse cx="384.51" cy="211.91" rx="5.24" ry="7.1"/><rect x="460.37" y="198.08" width="27.17" height="5.44" transform="translate(-0.67 -185.46) rotate(24.68)"/><rect x="497.47" y="196.93" width="27.17" height="5.44" transform="matrix(0.82, -0.58, 0.58, 0.82, -149.51, 324.91)"/><path class="cls-9" d="M569.11,205.72a15.7,15.7,0,0,1-3.35,6.07,1,1,0,0,0-.22.52,72.4,72.4,0,0,1-3.11,18.3c-1,3.64-2.27,7.23-3.44,10.84a1.75,1.75,0,0,1-.63.8,42.76,42.76,0,0,1-27.6,7.57,43.52,43.52,0,0,1-14.59-3.45,1.14,1.14,0,0,0-.45-.15,4.59,4.59,0,0,1-3.24-1.51,27.2,27.2,0,0,1-4.62-5.85A142.51,142.51,0,0,1,498,219.37a8.08,8.08,0,0,0-.51-1.07,4.47,4.47,0,0,0-6.07-1.78,18.29,18.29,0,0,0-2.77,1.81,1.62,1.62,0,0,0-.47.73l-7.49,18.12a15.92,15.92,0,0,1-3.93,5.23A25.48,25.48,0,0,1,463.08,249a48.59,48.59,0,0,1-16.88-.29,68.37,68.37,0,0,1-11.68-3.09c-.65-.23-1.35-.34-2-.6a9.87,9.87,0,0,1-4.21-3.46,26.74,26.74,0,0,1-3.94-8.51,70.69,70.69,0,0,1-2.49-13.86c-.19-2-.25-4.1-.4-6.15a1.37,1.37,0,0,0-.31-.72c-1.22-1.49-2.47-2.94-3.68-4.43a1.79,1.79,0,0,1-.36-1c0-1.65,0-3.31,0-5,1.55-.3,3.07-.62,4.61-.88a116.79,116.79,0,0,1,28.32-1.27,136.92,136.92,0,0,1,27.57,4.6,21.82,21.82,0,0,1,2.83,1.2,34.85,34.85,0,0,0,15.21,3.38,19.73,19.73,0,0,0,8.94-2.27,48.28,48.28,0,0,1,13.8-4.57,121.68,121.68,0,0,1,28-1.71q8,.3,16,1.34c1.11.14,2.24.2,3.36.35a3.62,3.62,0,0,1,3.3,2.38Z" transform="translate(-127.81 -5.91)"/><text class="cls-10" transform="translate(116.66 459.12) rotate(-0.17)">BABY BANANA</text></svg>