<svg id="Layer_1" data-name="Layer 1" xmlns="http://www.w3.org/2000/svg" viewBox="0 0 146 146"><defs><style>.cls-1{fill:#eb647e;}</style></defs><path class="cls-1" d="M385.44,327a73,73,0,1,1-72.88-73.12A73.11,73.11,0,0,1,385.44,327Zm-73.32,26.32c6.45,4.77,12.63,9.38,18.84,13.93,4.74,3.47,7.55,2.42,8.78-3.22q1.44-6.66,2.86-13.32c3.41-16,6.85-32,10.21-48,.52-2.46,1.37-5.53-1.2-7-1.54-.86-4.26-.42-6.14.29-16.9,6.34-33.72,12.87-50.57,19.34-8.76,3.37-17.57,6.64-26.26,10.18-1.45.59-2.44,2.32-3.64,3.53,1.28.95,2.43,2.3,3.87,2.79,5.39,1.85,10.9,3.32,16.3,5.13a5.86,5.86,0,0,0,5.57-.76q21.08-13.49,42.3-26.75a28.27,28.27,0,0,1,3.81-1.69l1,1.47a20.64,20.64,0,0,0-2.89,1.86c-8,7.19-16,14.39-24,21.66-4,3.68-9.53,6.87-11.39,11.48-1.92,4.78-.27,11-.14,16.61a30.76,30.76,0,0,0,.64,3.6Z" transform="translate(-239.44 -253.91)"/></svg>