<svg id="Layer_1" data-name="Layer 1" xmlns="http://www.w3.org/2000/svg" viewBox="0 0 143.87 143.84"><defs><style>.cls-1{fill:#eb647e;}</style></defs><path class="cls-1" d="M530.48,260.79a71.92,71.92,0,1,1-71.9,72A71.86,71.86,0,0,1,530.48,260.79ZM488.12,364.37a7.85,7.85,0,0,0,.76.52,51.52,51.52,0,0,0,38.81,5.83c25.27-5.79,38.77-28.87,39-49.12,0-2.43.51-4.18,2.62-5.49a15.53,15.53,0,0,0,2.59-2.42c.67-.7,1.31-1.44,1.91-2.19s1.07-1.48,1.65-2.28l-9.26,2.51c5-5.26,6.61-7.45,6.73-9.75-1.5.7-3,1.48-4.53,2.08s-3.28,1-4.91,1.6a2.42,2.42,0,0,1-2.73-.62,18,18,0,0,0-20.47-2.71,18.23,18.23,0,0,0-9.75,17.93c.07.72.17,1.44.28,2.32-15.17-1.07-27.43-7.42-37.17-18.75a15.69,15.69,0,0,0-2.56,9.27,18.4,18.4,0,0,0,7.63,14.51l-.26.42-7.57-2.11c.65,9.15,5.41,14.92,14,18H497.3c3.06,7.79,8.55,11.82,16.86,12.68A38.59,38.59,0,0,1,488.12,364.37Z" transform="translate(-458.58 -260.79)"/></svg>